<svg xmlns="http://www.w3.org/2000/svg" xmlns:xlink="http://www.w3.org/1999/xlink" width="48" height="48" viewBox="0 0 48 48"><defs><style>.cls-1,.cls-4,.cls-5{fill:#494949}.cls-1,.cls-2{fill-opacity:0;stroke:#0f0;stroke-linejoin:round;stroke-width:2px}.cls-2,.cls-3{fill:#262827}.cls-3{fill-rule:evenodd;filter:url(#filter)}.cls-4{filter:url(#filter-2)}.cls-5{filter:url(#filter-3)}</style><filter id="filter" width="14" height="14" x="1000" y="6117" filterUnits="userSpaceOnUse"><feFlood flood-color="#0f0" result="flood"/><feComposite in2="SourceGraphic" operator="in" result="composite"/><feBlend in2="SourceGraphic" result="blend"/></filter><filter id="filter-2" width="8" height="2" x="20" y="23" filterUnits="userSpaceOnUse"><feFlood flood-color="#0f0" result="flood"/><feComposite in2="SourceGraphic" operator="in" result="composite"/><feBlend in2="SourceGraphic" result="blend"/></filter><filter id="filter-3" width="2" height="13" x="23" y="20" filterUnits="userSpaceOnUse"><feFlood flood-color="#0f0" result="flood"/><feComposite in2="SourceGraphic" operator="in" result="composite"/><feBlend in2="SourceGraphic" result="blend"/></filter></defs><circle id="Ellipse_1_copy_3" cx="24" cy="24" r="21" class="cls-1" data-name="Ellipse 1 copy 3"/><circle cx="24" cy="18" r="1.5" class="cls-2"/><path d="M1007,6117a7,7,0,1,1-7,7A6.995,6.995,0,0,1,1007,6117Zm0,2a5,5,0,1,1-5,5A5,5,0,0,1,1007,6119Zm-13-7h26v13H994v-13Z" class="cls-3" transform="translate(-983 -6097)"/><rect id="Rectangle_32_copy_9" width="8" height="2" x="20" y="23" class="cls-4" data-name="Rectangle 32 copy 9"/><rect id="Rectangle_32_copy_10" width="2" height="13" x="23" y="20" class="cls-5" data-name="Rectangle 32 copy 10"/></svg>