<svg xmlns="http://www.w3.org/2000/svg" xmlns:xlink="http://www.w3.org/1999/xlink" width="512" height="512" enable-background="new 0 0 129 129" version="1.1" viewBox="0 0 129 129"><g><g><path fill="#FFF" d="m91.4,33.5h-53.8c-2.3,0-4.1,1.8-4.1,4.1 0,2.3 1.8,4.1 4.1,4.1h53.9c2.3,0 4.1-1.8 4.1-4.1-0.1-2.3-1.9-4.1-4.2-4.1z"/><path fill="#FFF" d="m91.4,87.4h-53.8c-2.3,0-4.1,1.8-4.1,4.1 0,2.3 1.8,4.1 4.1,4.1h53.9c2.3,0 4.1-1.8 4.1-4.1-0.1-2.3-1.9-4.1-4.2-4.1z"/><path fill="#FFF" d="m91.4,60.4h-53.8c-2.3,0-4.1,1.8-4.1,4.1 0,2.3 1.8,4.1 4.1,4.1h53.9c2.3,0 4.1-1.8 4.1-4.1-0.1-2.3-1.9-4.1-4.2-4.1z"/></g></g></svg>